<?xml version="1.0" encoding="UTF-8"?>
<svg version="1.1" xmlns="http://www.w3.org/2000/svg" width="200" height="200">
<path d="M0 0 C1.37152222 -0.00945648 1.37152222 -0.00945648 2.77075195 -0.019104 C4.25514771 -0.01303131 4.25514771 -0.01303131 5.76953125 -0.00683594 C6.78297607 -0.00874939 7.7964209 -0.01066284 8.84057617 -0.01263428 C10.98584237 -0.01399685 13.13111678 -0.01029541 15.27636719 -0.00195312 C18.56854697 0.00874524 21.86018103 -0.00184613 25.15234375 -0.01464844 C27.23307413 -0.01332686 29.31380416 -0.01076449 31.39453125 -0.00683594 C32.38412842 -0.0108844 33.37372559 -0.01493286 34.39331055 -0.019104 C35.30765869 -0.01279968 36.22200684 -0.00649536 37.1640625 0 C38.37412964 0.00238678 38.37412964 0.00238678 39.60864258 0.00482178 C41.58203125 0.25878906 41.58203125 0.25878906 43.58203125 2.25878906 C43.39453125 4.75878906 43.39453125 4.75878906 42.58203125 7.25878906 C39.32813137 9.42805565 38.44807168 9.49958955 34.6953125 9.45410156 C33.75751953 9.44765625 32.81972656 9.44121094 31.85351562 9.43457031 C30.38881836 9.40943359 30.38881836 9.40943359 28.89453125 9.38378906 C27.90646484 9.37476563 26.91839844 9.36574219 25.90039062 9.35644531 C23.4606936 9.33287336 21.02148428 9.29996929 18.58203125 9.25878906 C18.25203125 11.23878906 17.92203125 13.21878906 17.58203125 15.25878906 C18.78601563 15.23558594 19.99 15.21238281 21.23046875 15.18847656 C22.8059834 15.16972044 24.38150473 15.15152007 25.95703125 15.13378906 C26.75109375 15.11703125 27.54515625 15.10027344 28.36328125 15.08300781 C30.4369514 15.06543434 32.51086366 15.15543739 34.58203125 15.25878906 C35.57203125 16.24878906 35.57203125 16.24878906 36.58203125 17.25878906 C36.02647569 21.81434462 36.02647569 21.81434462 34.58203125 23.25878906 C32.13594127 23.41859343 29.71472067 23.51808353 27.265625 23.57519531 C26.1690432 23.60636696 26.1690432 23.60636696 25.05030823 23.63816833 C22.70681469 23.7037393 20.36320586 23.76258338 18.01953125 23.82128906 C16.4342327 23.86446714 14.84894596 23.90808119 13.26367188 23.95214844 C9.36991088 24.05942826 5.47603353 24.16067396 1.58203125 24.25878906 C2.8194104 24.54991577 2.8194104 24.54991577 4.08178711 24.84692383 C5.16339111 25.10787842 6.24499512 25.36883301 7.359375 25.63769531 C8.96800415 26.02163452 8.96800415 26.02163452 10.60913086 26.41333008 C15.22533569 27.72612611 17.95465363 29.73990328 21.45703125 33.00878906 C23.14024036 36.37520727 23.13067072 39.61322413 22.58203125 43.25878906 C21.20703125 46.25878906 21.20703125 46.25878906 19.58203125 48.25878906 C18.92203125 48.25878906 18.26203125 48.25878906 17.58203125 48.25878906 C17.74703125 47.57816406 17.91203125 46.89753906 18.08203125 46.19628906 C19.27532035 39.80911247 19.27532035 39.80911247 17.01953125 34.00878906 C12.24991295 30.58444772 7.37653256 28.96543556 1.58203125 28.25878906 C2.32453125 29.29003906 3.06703125 30.32128906 3.83203125 31.38378906 C7.77565827 37.64190943 10.58203125 45.82903125 10.58203125 53.25878906 C11.57203125 53.25878906 12.56203125 53.25878906 13.58203125 53.25878906 C13.25203125 54.24878906 12.92203125 55.23878906 12.58203125 56.25878906 C11.92203125 56.25878906 11.26203125 56.25878906 10.58203125 56.25878906 C10.64003906 57.02320313 10.69804687 57.78761719 10.7578125 58.57519531 C11.39409096 73.68226393 6.27346685 85.29285739 -3.4453125 96.62207031 C-10.49961293 104.21214039 -18.62581968 108.99473937 -28.41796875 112.25878906 C-24.12796875 112.58878906 -19.83796875 112.91878906 -15.41796875 113.25878906 C-15.08796875 114.24878906 -14.75796875 115.23878906 -14.41796875 116.25878906 C-31.57796875 116.25878906 -48.73796875 116.25878906 -66.41796875 116.25878906 C-66.41796875 115.26878906 -66.41796875 114.27878906 -66.41796875 113.25878906 C-67.04703125 113.08863281 -67.67609375 112.91847656 -68.32421875 112.74316406 C-74.0815174 111.11308553 -79.14681281 109.08959503 -84.41796875 106.25878906 C-84.41796875 105.26878906 -84.41796875 104.27878906 -84.41796875 103.25878906 C-80.18016151 103.78851497 -76.97839284 105.39988017 -73.28515625 107.41894531 C-71.30320075 108.46389207 -71.30320075 108.46389207 -68.41796875 108.25878906 C-69.10761719 107.86949219 -69.79726562 107.48019531 -70.5078125 107.07910156 C-78.78674737 102.15035295 -85.06312321 96.29105738 -90.41796875 88.25878906 C-92.98079617 87.5291354 -92.98079617 87.5291354 -95.41796875 87.25878906 C-95.41796875 86.59878906 -95.41796875 85.93878906 -95.41796875 85.25878906 C-94.42796875 84.92878906 -93.43796875 84.59878906 -92.41796875 84.25878906 C-92.69511719 83.58332031 -92.97226563 82.90785156 -93.2578125 82.21191406 C-93.80115234 80.87386719 -93.80115234 80.87386719 -94.35546875 79.50878906 C-94.71511719 78.62707031 -95.07476562 77.74535156 -95.4453125 76.83691406 C-96.89186545 73.00267733 -97.54493442 69.7365946 -97.55078125 65.63378906 C-97.55207031 64.76238281 -97.55335937 63.89097656 -97.5546875 62.99316406 C-97.55082031 62.09082031 -97.54695313 61.18847656 -97.54296875 60.25878906 C-97.54876953 58.90527344 -97.54876953 58.90527344 -97.5546875 57.52441406 C-97.55339844 56.65300781 -97.55210938 55.78160156 -97.55078125 54.88378906 C-97.54965332 54.09230469 -97.54852539 53.30082031 -97.54736328 52.48535156 C-97.41971108 50.28877032 -97.02438532 48.36890194 -96.41796875 46.25878906 C-97.31628418 46.2692627 -98.21459961 46.27973633 -99.14013672 46.29052734 C-102.46861322 46.32458377 -105.79690497 46.34967524 -109.12548828 46.36865234 C-110.56692422 46.37871869 -112.0083397 46.39237287 -113.44970703 46.40966797 C-115.51990809 46.43388918 -117.58983951 46.44526548 -119.66015625 46.45410156 C-121.52969971 46.46981201 -121.52969971 46.46981201 -123.43701172 46.48583984 C-126.41796875 46.25878906 -126.41796875 46.25878906 -128.41796875 44.25878906 C-128.29296875 41.75878906 -128.29296875 41.75878906 -127.41796875 39.25878906 C-124.46113694 37.33331465 -122.13740432 37.0187963 -118.65234375 37.06347656 C-117.76289062 37.06992188 -116.8734375 37.07636719 -115.95703125 37.08300781 C-115.03664063 37.09976563 -114.11625 37.11652344 -113.16796875 37.13378906 C-112.23210937 37.1428125 -111.29625 37.15183594 -110.33203125 37.16113281 C-108.02708218 37.1846527 -105.72265715 37.21752054 -103.41796875 37.25878906 C-103.41796875 35.60878906 -103.41796875 33.95878906 -103.41796875 32.25878906 C-104.54976562 32.20980469 -105.6815625 32.16082031 -106.84765625 32.11035156 C-108.32945214 32.03532392 -109.81122175 31.95977609 -111.29296875 31.88378906 C-112.03933594 31.85285156 -112.78570312 31.82191406 -113.5546875 31.79003906 C-119.19140625 31.48535156 -119.19140625 31.48535156 -121.41796875 29.25878906 C-120.86241319 24.70323351 -120.86241319 24.70323351 -119.41796875 23.25878906 C-117.65724947 23.1983085 -115.89438793 23.19828949 -114.1328125 23.22363281 C-113.04419922 23.21783203 -111.95558594 23.21203125 -110.83398438 23.20605469 C-108.54223204 23.1996208 -106.25022718 23.21980484 -103.95898438 23.26855469 C-97.6465492 23.25472118 -97.6465492 23.25472118 -92.11474609 20.57592773 C-90.79147891 19.18560419 -89.50606619 17.75821991 -88.26196289 16.29663086 C-85.3899491 13.12270009 -81.99579154 11.4974034 -78.16796875 9.69628906 C-77.47445312 9.34244141 -76.7809375 8.98859375 -76.06640625 8.62402344 C-72.38610066 6.8296982 -70.31732363 5.97170151 -66.41796875 7.25878906 C-67.87258191 10.16801539 -69.77317453 10.27368476 -72.79296875 11.38378906 C-79.46489978 14.04776152 -84.81545885 17.81427826 -90.41796875 22.25878906 C-87.5884433 22.81239187 -86.16614158 22.98537433 -83.41796875 22.25878906 C-80.86171018 20.20752563 -78.59825342 17.94297404 -76.2578125 15.64941406 C-72.2375471 12.2650916 -67.85636897 10.48274808 -63.0078125 8.54785156 C-61.72583984 7.90976562 -61.72583984 7.90976562 -60.41796875 7.25878906 C-60.08796875 6.26878906 -59.75796875 5.27878906 -59.41796875 4.25878906 C-51.44830945 4.03464239 -43.94315175 4.34232181 -36.05078125 5.47265625 C-26.23644676 6.79599022 -16.30590915 6.93906859 -6.41796875 7.25878906 C-6.45921875 6.47503906 -6.50046875 5.69128906 -6.54296875 4.88378906 C-6.32207447 0.24500909 -4.06652047 0.00802095 0 0 Z " fill="#FD833B" transform="translate(148.41796875,46.7412109375)"/>
<path d="M0 0 C1.37152222 -0.00945648 1.37152222 -0.00945648 2.77075195 -0.019104 C4.25514771 -0.01303131 4.25514771 -0.01303131 5.76953125 -0.00683594 C6.78297607 -0.00874939 7.7964209 -0.01066284 8.84057617 -0.01263428 C10.98584237 -0.01399685 13.13111678 -0.01029541 15.27636719 -0.00195312 C18.56854697 0.00874524 21.86018103 -0.00184613 25.15234375 -0.01464844 C27.23307413 -0.01332686 29.31380416 -0.01076449 31.39453125 -0.00683594 C32.38412842 -0.0108844 33.37372559 -0.01493286 34.39331055 -0.019104 C35.30765869 -0.01279968 36.22200684 -0.00649536 37.1640625 0 C38.37412964 0.00238678 38.37412964 0.00238678 39.60864258 0.00482178 C41.58203125 0.25878906 41.58203125 0.25878906 43.58203125 2.25878906 C43.39453125 4.75878906 43.39453125 4.75878906 42.58203125 7.25878906 C39.32813137 9.42805565 38.44807168 9.49958955 34.6953125 9.45410156 C33.75751953 9.44765625 32.81972656 9.44121094 31.85351562 9.43457031 C30.38881836 9.40943359 30.38881836 9.40943359 28.89453125 9.38378906 C27.90646484 9.37476563 26.91839844 9.36574219 25.90039062 9.35644531 C23.4606936 9.33287336 21.02148428 9.29996929 18.58203125 9.25878906 C18.25203125 11.23878906 17.92203125 13.21878906 17.58203125 15.25878906 C18.78601563 15.23558594 19.99 15.21238281 21.23046875 15.18847656 C22.8059834 15.16972044 24.38150473 15.15152007 25.95703125 15.13378906 C26.75109375 15.11703125 27.54515625 15.10027344 28.36328125 15.08300781 C30.4369514 15.06543434 32.51086366 15.15543739 34.58203125 15.25878906 C35.57203125 16.24878906 35.57203125 16.24878906 36.58203125 17.25878906 C36.02647569 21.81434462 36.02647569 21.81434462 34.58203125 23.25878906 C32.13594127 23.41859343 29.71472067 23.51808353 27.265625 23.57519531 C26.53457047 23.59597641 25.80351593 23.61675751 25.05030823 23.63816833 C22.70681469 23.7037393 20.36320586 23.76258338 18.01953125 23.82128906 C16.4342327 23.86446714 14.84894596 23.90808119 13.26367188 23.95214844 C9.36991088 24.05942826 5.47603353 24.16067396 1.58203125 24.25878906 C2.8194104 24.54991577 2.8194104 24.54991577 4.08178711 24.84692383 C5.16339111 25.10787842 6.24499512 25.36883301 7.359375 25.63769531 C8.96800415 26.02163452 8.96800415 26.02163452 10.60913086 26.41333008 C15.22533569 27.72612611 17.95465363 29.73990328 21.45703125 33.00878906 C23.14024036 36.37520727 23.13067072 39.61322413 22.58203125 43.25878906 C21.20703125 46.25878906 21.20703125 46.25878906 19.58203125 48.25878906 C18.92203125 48.25878906 18.26203125 48.25878906 17.58203125 48.25878906 C17.74703125 47.57816406 17.91203125 46.89753906 18.08203125 46.19628906 C19.27532035 39.80911247 19.27532035 39.80911247 17.01953125 34.00878906 C12.24991295 30.58444772 7.37653256 28.96543556 1.58203125 28.25878906 C2.32453125 29.29003906 3.06703125 30.32128906 3.83203125 31.38378906 C7.77565827 37.64190943 10.58203125 45.82903125 10.58203125 53.25878906 C11.57203125 53.25878906 12.56203125 53.25878906 13.58203125 53.25878906 C13.25203125 54.24878906 12.92203125 55.23878906 12.58203125 56.25878906 C11.92203125 56.25878906 11.26203125 56.25878906 10.58203125 56.25878906 C10.64003906 57.02320313 10.69804687 57.78761719 10.7578125 58.57519531 C11.39409096 73.68226393 6.27346685 85.29285739 -3.4453125 96.62207031 C-10.49961293 104.21214039 -18.62581968 108.99473937 -28.41796875 112.25878906 C-24.12796875 112.58878906 -19.83796875 112.91878906 -15.41796875 113.25878906 C-15.08796875 114.24878906 -14.75796875 115.23878906 -14.41796875 116.25878906 C-31.57796875 116.25878906 -48.73796875 116.25878906 -66.41796875 116.25878906 C-66.41796875 115.26878906 -66.41796875 114.27878906 -66.41796875 113.25878906 C-67.04703125 113.08863281 -67.67609375 112.91847656 -68.32421875 112.74316406 C-74.0815174 111.11308553 -79.14681281 109.08959503 -84.41796875 106.25878906 C-84.41796875 105.26878906 -84.41796875 104.27878906 -84.41796875 103.25878906 C-81.08747694 103.67510054 -78.96587927 104.50538332 -75.98046875 106.13378906 C-62.95494303 112.8677401 -48.70029652 112.46091883 -35.01953125 108.53222656 C-29.03510545 106.41625822 -23.73811294 103.62542066 -19.2734375 99.07128906 C-17.41796875 97.25878906 -17.41796875 97.25878906 -15.41796875 97.25878906 C-15.19109375 96.70191406 -14.96421875 96.14503906 -14.73046875 95.57128906 C-13.41796875 93.25878906 -13.41796875 93.25878906 -10.98046875 90.94628906 C-8.01905154 87.84041248 -6.89177864 85.27827059 -5.41796875 81.25878906 C-5.01578125 80.16824219 -5.01578125 80.16824219 -4.60546875 79.05566406 C-2.97626429 74.45002838 -1.93465043 70.11559683 -1.41796875 65.25878906 C-2.12179688 65.63390625 -2.825625 66.00902344 -3.55078125 66.39550781 C-13.46786825 71.53530356 -23.67553017 75.2634323 -34.41796875 78.25878906 C-34.41796875 77.59878906 -34.41796875 76.93878906 -34.41796875 76.25878906 C-33.48597656 75.89527344 -32.55398437 75.53175781 -31.59375 75.15722656 C-23.06982912 71.80637406 -14.62507453 68.33948093 -6.41796875 64.25878906 C-5.48339844 63.79601562 -4.54882812 63.33324219 -3.5859375 62.85644531 C-1.26689264 61.4778996 -1.26689264 61.4778996 -0.7890625 59.23535156 C-1.09508072 48.3987062 -4.42377611 35.10912901 -11.60546875 26.69628906 C-12.53359375 25.89191406 -13.46171875 25.08753906 -14.41796875 24.25878906 C-15.04445313 23.64261719 -15.6709375 23.02644531 -16.31640625 22.39160156 C-26.45361614 12.69354878 -39.02129669 7.11352301 -53.04296875 7.07128906 C-55.16835509 7.11887234 -57.29365689 7.17614292 -59.41796875 7.25878906 C-59.41796875 6.26878906 -59.41796875 5.27878906 -59.41796875 4.25878906 C-51.44830945 4.03464239 -43.94315175 4.34232181 -36.05078125 5.47265625 C-26.23644676 6.79599022 -16.30590915 6.93906859 -6.41796875 7.25878906 C-6.45921875 6.47503906 -6.50046875 5.69128906 -6.54296875 4.88378906 C-6.32207447 0.24500909 -4.06652047 0.00802095 0 0 Z " fill="#B2541E" transform="translate(148.41796875,46.7412109375)"/>
<path d="M0 0 C1.37152222 -0.00945648 1.37152222 -0.00945648 2.77075195 -0.019104 C3.76034912 -0.01505554 4.74994629 -0.01100708 5.76953125 -0.00683594 C6.78297607 -0.00874939 7.7964209 -0.01066284 8.84057617 -0.01263428 C10.98584237 -0.01399685 13.13111678 -0.01029541 15.27636719 -0.00195312 C18.56854697 0.00874524 21.86018103 -0.00184613 25.15234375 -0.01464844 C27.23307413 -0.01332686 29.31380416 -0.01076449 31.39453125 -0.00683594 C32.38412842 -0.0108844 33.37372559 -0.01493286 34.39331055 -0.019104 C35.30765869 -0.01279968 36.22200684 -0.00649536 37.1640625 0 C38.37412964 0.00238678 38.37412964 0.00238678 39.60864258 0.00482178 C41.58203125 0.25878906 41.58203125 0.25878906 43.58203125 2.25878906 C43.39453125 4.75878906 43.39453125 4.75878906 42.58203125 7.25878906 C39.32813137 9.42805565 38.44807168 9.49958955 34.6953125 9.45410156 C33.75751953 9.44765625 32.81972656 9.44121094 31.85351562 9.43457031 C30.38881836 9.40943359 30.38881836 9.40943359 28.89453125 9.38378906 C27.90646484 9.37476563 26.91839844 9.36574219 25.90039062 9.35644531 C23.4606936 9.33287336 21.02148428 9.29996929 18.58203125 9.25878906 C18.25203125 11.23878906 17.92203125 13.21878906 17.58203125 15.25878906 C18.78601563 15.23558594 19.99 15.21238281 21.23046875 15.18847656 C22.8059834 15.16972044 24.38150473 15.15152007 25.95703125 15.13378906 C26.75109375 15.11703125 27.54515625 15.10027344 28.36328125 15.08300781 C30.4369514 15.06543434 32.51086366 15.15543739 34.58203125 15.25878906 C35.24203125 15.91878906 35.90203125 16.57878906 36.58203125 17.25878906 C36.02647569 21.81434462 36.02647569 21.81434462 34.58203125 23.25878906 C29.29561263 23.60049532 24.00699134 23.65861439 18.71069336 23.71875 C16.92884297 23.74526034 15.14714313 23.78607878 13.3659668 23.84179688 C-3.34057021 24.3582854 -3.34057021 24.3582854 -8.3828125 19.89941406 C-9.40540642 18.69502215 -10.41785559 17.48191288 -11.41796875 16.25878906 C-16.41013109 12.56641713 -21.55705607 10.24731301 -27.41796875 8.25878906 C-27.41796875 7.92878906 -27.41796875 7.59878906 -27.41796875 7.25878906 C-20.48796875 7.25878906 -13.55796875 7.25878906 -6.41796875 7.25878906 C-6.41796875 5.60878906 -6.41796875 3.95878906 -6.41796875 2.25878906 C-3.97668206 -0.18249762 -3.34716061 0.00660206 0 0 Z " fill="#85B3F6" transform="translate(148.41796875,46.7412109375)"/>
<path d="M0 0 C1.33278992 0.00303635 1.33278992 0.00303635 2.69250488 0.00613403 C3.5987561 0.00517731 4.50500732 0.00422058 5.4387207 0.00323486 C7.35876535 0.002553 9.27881229 0.00440771 11.19885254 0.00857544 C14.14861192 0.01392361 17.09821902 0.00863066 20.04797363 0.00222778 C21.90865105 0.00288856 23.76932838 0.00416972 25.63000488 0.00613403 C26.51853149 0.0041098 27.40705811 0.00208557 28.32250977 0 C34.546305 0.02399665 34.546305 0.02399665 35.66125488 1.13894653 C35.66125488 2.78894653 35.66125488 4.43894653 35.66125488 6.13894653 C40.61125488 6.46894653 45.56125488 6.79894653 50.66125488 7.13894653 C51.15625488 9.61394653 51.15625488 9.61394653 51.66125488 12.13894653 C49.66125488 14.13894653 49.66125488 14.13894653 47.5982666 14.36599731 C46.35714111 14.35028687 46.35714111 14.35028687 45.09094238 14.33425903 C43.74709473 14.32459106 43.74709473 14.32459106 42.37609863 14.31472778 C41.4389502 14.29796997 40.50180176 14.28121216 39.53625488 14.26394653 C38.59137207 14.2549231 37.64648926 14.24589966 36.67297363 14.23660278 C34.33548196 14.21299176 31.99849365 14.18006169 29.66125488 14.13894653 C29.68187988 14.94332153 29.70250488 15.74769653 29.72375488 16.57644653 C29.66125488 19.13894653 29.66125488 19.13894653 28.66125488 20.13894653 C25.63147684 20.22765926 22.62458466 20.25414004 19.59484863 20.23660278 C18.68622574 20.23518784 17.77760284 20.23377289 16.84144592 20.23231506 C13.92718268 20.22669847 11.01299507 20.21414318 8.09875488 20.20144653 C6.12805286 20.19643367 4.15734965 20.19187039 2.18664551 20.18777466 C-2.6551807 20.17672364 -7.49695007 20.15944791 -12.33874512 20.13894653 C-12.7200781 18.14754093 -13.05200094 16.14615576 -13.33874512 14.13894653 C-12.33874512 13.13894653 -12.33874512 13.13894653 -10.29748535 13.02542114 C-9.42293701 13.03065796 -8.54838867 13.03589478 -7.64733887 13.04129028 C-6.70310059 13.04451294 -5.7588623 13.0477356 -4.78601074 13.05105591 C-3.79278809 13.05943481 -2.79956543 13.06781372 -1.77624512 13.07644653 C-0.77915527 13.08095825 0.21793457 13.08546997 1.24523926 13.09011841 C3.71730337 13.10194647 6.18925006 13.11842804 8.66125488 13.13894653 C8.66125488 11.48894653 8.66125488 9.83894653 8.66125488 8.13894653 C7.59004395 8.0783606 6.51883301 8.01777466 5.41516113 7.95535278 C4.01801097 7.87096116 2.62087632 7.78631248 1.22375488 7.70144653 C0.5167041 7.66213013 -0.19034668 7.62281372 -0.91882324 7.58230591 C-6.22546387 7.25222778 -6.22546387 7.25222778 -7.33874512 6.13894653 C-7.46374512 3.63894653 -7.46374512 3.63894653 -7.33874512 1.13894653 C-5.41617337 -0.78362522 -2.55789404 0.00986229 0 0 Z " fill="#85B4F7" transform="translate(33.3387451171875,166.86105346679688)"/>
<path d="M0 0 C-1.45461316 2.90922633 -3.35520578 3.0148957 -6.375 4.125 C-13.04693103 6.78897246 -18.3974901 10.55548919 -24 15 C-21.69 15.33 -19.38 15.66 -17 16 C-17.44730469 16.65484375 -17.89460938 17.3096875 -18.35546875 17.984375 C-19.26232422 19.35335937 -19.26232422 19.35335937 -20.1875 20.75 C-20.77917969 21.63171875 -21.37085938 22.5134375 -21.98046875 23.421875 C-24.954816 28.29204399 -26.89166418 33.71602022 -29 39 C-33.37823917 39.04938149 -37.75633146 39.0857104 -42.13476562 39.10986328 C-43.6247032 39.11993043 -45.11462097 39.13358518 -46.60449219 39.15087891 C-48.74419028 39.17509653 -50.88362753 39.18647564 -53.0234375 39.1953125 C-54.31169434 39.20578613 -55.59995117 39.21625977 -56.92724609 39.22705078 C-60 39 -60 39 -62 37 C-61.875 34.5 -61.875 34.5 -61 32 C-58.04316819 30.07452559 -55.71943557 29.76000724 -52.234375 29.8046875 C-51.34492187 29.81113281 -50.45546875 29.81757812 -49.5390625 29.82421875 C-48.61867188 29.84097656 -47.69828125 29.85773438 -46.75 29.875 C-45.81414063 29.88402344 -44.87828125 29.89304687 -43.9140625 29.90234375 C-41.60911343 29.92586364 -39.3046884 29.95873147 -37 30 C-37 28.35 -37 26.7 -37 25 C-38.13179687 24.95101562 -39.26359375 24.90203125 -40.4296875 24.8515625 C-41.91148339 24.77653486 -43.393253 24.70098703 -44.875 24.625 C-45.62136719 24.5940625 -46.36773437 24.563125 -47.13671875 24.53125 C-52.7734375 24.2265625 -52.7734375 24.2265625 -55 22 C-54.44444444 17.44444444 -54.44444444 17.44444444 -53 16 C-51.23928072 15.93951943 -49.47641918 15.93950043 -47.71484375 15.96484375 C-46.62623047 15.95904297 -45.53761719 15.95324219 -44.41601562 15.94726562 C-42.12426329 15.94083173 -39.83225843 15.96101578 -37.54101562 16.00976562 C-31.22858045 15.99593212 -31.22858045 15.99593212 -25.69677734 13.31713867 C-24.37351016 11.92681513 -23.08809744 10.49943085 -21.84399414 9.0378418 C-18.97198035 5.86391103 -15.57782279 4.23861434 -11.75 2.4375 C-11.05648437 2.08365234 -10.36296875 1.72980469 -9.6484375 1.36523438 C-5.96813191 -0.42909086 -3.89935488 -1.28708755 0 0 Z " fill="#85B2F3" transform="translate(82,54)"/>
<path d="M0 0 C0.99 0.495 0.99 0.495 2 1 C-6.37524278 11.02992601 -14.45733381 17.81911127 -27 22 C-16.11 22.495 -16.11 22.495 -5 23 C-4.505 24.485 -4.505 24.485 -4 26 C-21.16 26 -38.32 26 -56 26 C-56 25.01 -56 24.02 -56 23 C-56.6290625 22.82984375 -57.258125 22.6596875 -57.90625 22.484375 C-63.66354865 20.85429647 -68.72884406 18.83080597 -74 16 C-74 15.01 -74 14.02 -74 13 C-70.66950819 13.41631148 -68.54791052 14.24659426 -65.5625 15.875 C-52.53697428 22.60895103 -38.28232777 22.20212977 -24.6015625 18.2734375 C-18.6171367 16.15746916 -13.32014419 13.3666316 -8.85546875 8.8125 C-7 7 -7 7 -5 7 C-4.5978125 6.1028125 -4.5978125 6.1028125 -4.1875 5.1875 C-3.01506533 3.02775192 -1.80630718 1.64209744 0 0 Z " fill="#230F03" transform="translate(138,137)"/>
<path d="M0 0 C-1.45461316 2.90922633 -3.35520578 3.0148957 -6.375 4.125 C-21.23735927 10.17938151 -30.5777963 20.48828971 -37 35 C-37.66 35 -38.32 35 -39 35 C-38.34 31.7 -37.68 28.4 -37 25 C-38.13179687 24.95101562 -39.26359375 24.90203125 -40.4296875 24.8515625 C-41.91148339 24.77653486 -43.393253 24.70098703 -44.875 24.625 C-45.62136719 24.5940625 -46.36773437 24.563125 -47.13671875 24.53125 C-52.7734375 24.2265625 -52.7734375 24.2265625 -55 22 C-54.44444444 17.44444444 -54.44444444 17.44444444 -53 16 C-51.23928072 15.93951943 -49.47641918 15.93950043 -47.71484375 15.96484375 C-46.62623047 15.95904297 -45.53761719 15.95324219 -44.41601562 15.94726562 C-42.12426329 15.94083173 -39.83225843 15.96101578 -37.54101562 16.00976562 C-31.22858045 15.99593212 -31.22858045 15.99593212 -25.69677734 13.31713867 C-24.37351016 11.92681513 -23.08809744 10.49943085 -21.84399414 9.0378418 C-18.97198035 5.86391103 -15.57782279 4.23861434 -11.75 2.4375 C-11.05648437 2.08365234 -10.36296875 1.72980469 -9.6484375 1.36523438 C-5.96813191 -0.42909086 -3.89935488 -1.28708755 0 0 Z " fill="#83B2F4" transform="translate(82,54)"/>
<path d="M0 0 C2.97 0.495 2.97 0.495 6 1 C5.34 2.32 4.68 3.64 4 5 C3.34 5 2.68 5 2 5 C2.61385751 20.87562521 5.28037997 34.58171733 16.64453125 46.40625 C18 48 18 48 18 50 C14.26334338 49.44976705 12.81553383 48.05497256 10.4375 45.1875 C9.85871094 44.50042969 9.27992187 43.81335938 8.68359375 43.10546875 C7 41 7 41 5.515625 38.765625 C3.37542052 36.27239711 1.32199065 36.64258874 -1.8046875 36.39453125 C-6.81479529 35.49413821 -10.74099595 32.4116106 -14.0625 28.6875 C-15.39207694 24.87604611 -15.25817173 21.76756396 -14 18 C-11.12337965 13.08161442 -7.24788482 8.77589762 -3 5 C-2.34 5 -1.68 5 -1 5 C-0.67 3.35 -0.34 1.7 0 0 Z M-5.375 11.125 C-9.06487241 14.88306307 -11.47457994 18.30722221 -12.5 23.5625 C-11.73861994 27.2742278 -9.90972603 28.64745555 -7 31 C-3.37761312 32.77941812 0.08729321 34.07533406 4 35 C3.80664062 34.47535156 3.61328125 33.95070313 3.4140625 33.41015625 C0.62256709 25.10476644 -0.14487541 16.67196942 -1 8 C-2.88479142 8 -4.10097631 9.88323007 -5.375 11.125 Z " fill="#230F02" transform="translate(41,96)"/>
<path d="M0 0 C3.0625 1.5 3.0625 1.5 5 4 C5.70173599 6.83014183 5.70734965 9.17060142 5 12 C2.89458038 14.63177453 1.41015834 15.75265368 -1.9375 16.33984375 C-5.29535118 16.49883292 -7.76220386 16.08601137 -10.9375 14.9375 C-13 13 -13 13 -13.9375 9.5625 C-13.997451 6.14529326 -13.99550964 4.69393801 -12 2 C-7.95325659 -0.69782894 -4.74903908 -0.64873038 0 0 Z M-11 4 C-11.67801034 6.90073181 -11.67801034 6.90073181 -12 10 C-11.34 10.66 -10.68 11.32 -10 12 C-10 9.36 -10 6.72 -10 4 C-10.33 4 -10.66 4 -11 4 Z " fill="#0073F9" transform="translate(153,23)"/>
<path d="M0 0 C0.66 0 1.32 0 2 0 C6.8927441 8.94191164 9.16950806 17.8679983 10 28 C10.81404297 27.3503125 10.81404297 27.3503125 11.64453125 26.6875 C12.35996094 26.130625 13.07539063 25.57375 13.8125 25 C14.52019531 24.443125 15.22789062 23.88625 15.95703125 23.3125 C18 22 18 22 21 22 C19.79216249 25.62351253 18.70346858 26.15215236 15.5625 28.1875 C14.75941406 28.71730469 13.95632812 29.24710938 13.12890625 29.79296875 C11 31 11 31 9 31 C8.96132812 32.01707031 8.96132812 32.01707031 8.921875 33.0546875 C8.49574317 40.04712346 6.95622934 45.66129431 4 52 C3.34 52 2.68 52 2 52 C3.33333333 46 4.66666667 40 6 34 C5.29617187 34.37511719 4.59234375 34.75023437 3.8671875 35.13671875 C-6.0498995 40.27651449 -16.25756142 44.00464324 -27 47 C-27 46.34 -27 45.68 -27 45 C-26.06800781 44.63648438 -25.13601562 44.27296875 -24.17578125 43.8984375 C-15.65186037 40.54758499 -7.20710578 37.08069187 1 33 C1.93457031 32.53722656 2.86914062 32.07445312 3.83203125 31.59765625 C6.15107611 30.21911054 6.15107611 30.21911054 6.62890625 27.9765625 C6.41832053 20.51935055 4.39138158 14.02810617 2 7 C1.30579332 4.67326333 0.65267669 2.33875814 0 0 Z " fill="#351706" transform="translate(141,78)"/>
<path d="M0 0 C-0.24609375 2.3515625 -0.24609375 2.3515625 -1 5 C-2.78515625 6.3359375 -2.78515625 6.3359375 -5.0625 7.375 C-13.23320711 11.54478852 -18.64862259 16.94576778 -23 25 C-24.65 24.67 -26.3 24.34 -28 24 C-24.96093576 14.27499442 -16.57747311 6.23876364 -7.75 1.5625 C-4.72880571 0.07062927 -3.61001642 0 0 0 Z " fill="#FFF7F3" transform="translate(91,63)"/>
<path d="M0 0 C16.83 0 33.66 0 51 0 C51 0.99 51 1.98 51 3 C34.17 3 17.34 3 0 3 C0 2.01 0 1.02 0 0 Z " fill="#050530" transform="translate(0,160)"/>
<path d="M0 0 C16.83 0 33.66 0 51 0 C51.495 1.485 51.495 1.485 52 3 C34.84 3 17.68 3 0 3 C0 2.01 0 1.02 0 0 Z " fill="#050530" transform="translate(82,160)"/>
<path d="M0 0 C-1.45461316 2.90922633 -3.35520578 3.0148957 -6.375 4.125 C-21.23735927 10.17938151 -30.5777963 20.48828971 -37 35 C-37.66 35 -38.32 35 -39 35 C-34.79702495 21.34033109 -26.43426485 10.1781196 -13.78491211 3.41308594 C-4.31764974 -1.41096953 -4.31764974 -1.41096953 0 0 Z " fill="#230F02" transform="translate(82,54)"/>
<path d="M0 0 C14.89809646 -0.80409516 27.56891672 2.71261115 40 11 C40 11.66 40 12.32 40 13 C40.5775 13.2475 41.155 13.495 41.75 13.75 C44.32939979 15.18299988 46.06121592 16.78424676 48 19 C48 19.66 48 20.32 48 21 C44.95353221 19.63710651 42.88245987 18.06976355 40.5 15.75 C28.81794151 5.32734559 15.17863321 2.40947681 0 3 C0 2.01 0 1.02 0 0 Z " fill="#3E1C09" transform="translate(89,51)"/>
<path d="M0 0 C3.0625 1.5 3.0625 1.5 5 4 C5.70173599 6.83014183 5.70734965 9.17060142 5 12 C2.89458038 14.63177453 1.41015834 15.75265368 -1.9375 16.33984375 C-5.29535118 16.49883292 -7.76220386 16.08601137 -10.9375 14.9375 C-13 13 -13 13 -13.9375 9.5625 C-13.997451 6.14529326 -13.99550964 4.69393801 -12 2 C-7.95325659 -0.69782894 -4.74903908 -0.64873038 0 0 Z M-9.875 3.0625 C-12.29324906 5.81794063 -12.29324906 5.81794063 -12.0625 9.125 C-10.8544038 12.39396619 -10.14328053 13.51567308 -7 15 C-4.18099161 14.8624874 -2.54230653 14.35530428 -0.1875 12.8125 C1.58260835 10.11075568 1.39415803 8.15326426 1 5 C-0.53381248 2.65891779 -1.79923892 2.08453098 -4.375 1 C-7.23423034 0.7449778 -7.23423034 0.7449778 -9.875 3.0625 Z " fill="#1A2E8D" transform="translate(153,23)"/>
<path d="M0 0 C-0.33 0.66 -0.66 1.32 -1 2 C-3.58984375 2.78125 -3.58984375 2.78125 -6.9375 3.5 C-8.12085938 3.75523437 -9.30421875 4.01046875 -10.5234375 4.2734375 C-11.67070313 4.51320312 -12.81796875 4.75296875 -14 5 C-14.87914062 5.19851562 -15.75828125 5.39703125 -16.6640625 5.6015625 C-28.68226047 8.22442655 -40.76711517 8.13044545 -53 8 C-53 7.34 -53 6.68 -53 6 C-52.29206299 5.96036133 -51.58412598 5.92072266 -50.85473633 5.87988281 C-36.71293163 5.05291677 -22.9920777 3.7810607 -9.1328125 0.8046875 C-6.03289757 0.1498149 -3.18415618 -0.19336981 0 0 Z " fill="#3F1D0A" transform="translate(106,126)"/>
<path d="M0 0 C11.88 0 23.76 0 36 0 C36 0.99 36 1.98 36 3 C24.12 3 12.24 3 0 3 C0 2.01 0 1.02 0 0 Z " fill="#050530" transform="translate(164,160)"/>
<path d="M0 0 C15.50364078 2.80339806 15.50364078 2.80339806 21.875 8.75 C23.55820911 12.11641821 23.54863947 15.35443507 23 19 C21.625 22 21.625 22 20 24 C19.34 24 18.68 24 18 24 C18.165 23.319375 18.33 22.63875 18.5 21.9375 C19.6932891 15.55032341 19.6932891 15.55032341 17.4375 9.75 C12.12859526 5.93847865 6.26982914 4.42996103 0 3 C0 2.01 0 1.02 0 0 Z " fill="#230F02" transform="translate(148,71)"/>
<path d="M0 0 C0.66 0.33 1.32 0.66 2 1 C-7.10120513 11.89931557 -17.15107619 19.89576596 -31 24 C-33.796875 24.10546875 -33.796875 24.10546875 -36 24 C-36 23.01 -36 22.02 -36 21 C-35.03320312 20.78085938 -34.06640625 20.56171875 -33.0703125 20.3359375 C-23.99591137 18.16863747 -15.58544144 15.67731731 -8.85546875 8.8125 C-7 7 -7 7 -5 7 C-4.731875 6.401875 -4.46375 5.80375 -4.1875 5.1875 C-3.01506533 3.02775192 -1.80630718 1.64209744 0 0 Z " fill="#3A1A08" transform="translate(138,137)"/>
<path d="M0 0 C-0.33 1.32 -0.66 2.64 -1 4 C-1 3.01 -1 2.02 -1 1 C-1.70382813 1.37511719 -2.40765625 1.75023438 -3.1328125 2.13671875 C-13.0498995 7.27651449 -23.25756142 11.00464324 -34 14 C-34 13.34 -34 12.68 -34 12 C-32.60201172 11.45472656 -32.60201172 11.45472656 -31.17578125 10.8984375 C-1.96258048 -0.58877415 -1.96258048 -0.58877415 0 0 Z " fill="#411E0A" transform="translate(148,111)"/>
<path d="M0 0 C0.99 0.66 1.98 1.32 3 2 C2.67 2.66 2.34 3.32 2 4 C1.443125 3.649375 0.88625 3.29875 0.3125 2.9375 C-2.6020668 1.75591887 -4.04965818 1.99067254 -7 3 C-9.26489372 5.81532057 -9.26489372 5.81532057 -9.0625 9 C-8.33740729 12.0175788 -8.33740729 12.0175788 -6.3671875 13.0546875 C-4.61590829 13.79915842 -2.8085575 14.40810846 -1 15 C-1 15.33 -1 15.66 -1 16 C-8.4002947 15.63605108 -8.4002947 15.63605108 -11.0625 12.8125 C-12.22485768 9.32542697 -12.11581249 7.49621248 -11 4 C-7.95160238 -0.45535037 -5.19795524 -0.56704966 0 0 Z " fill="#211411" transform="translate(151,23)"/>
<path d="M0 0 C0.66 0 1.32 0 2 0 C1.88835829 3.79581799 0.65809541 5.70854157 -2 8.25 C-6.04936748 11.53327093 -9.89974362 11.97686959 -15 12 C-15.33 11.01 -15.66 10.02 -16 9 C-14.96875 9.0825 -13.9375 9.165 -12.875 9.25 C-8.3003981 8.95486439 -6.47870161 7.92527181 -3 5 C-1.95650161 3.36021682 -0.94392019 1.69905634 0 0 Z " fill="#421F0B" transform="translate(134,99)"/>
<path d="M0 0 C0.99 0.33 1.98 0.66 3 1 C2.54109375 1.6290625 2.0821875 2.258125 1.609375 2.90625 C-2.12088311 8.10980334 -5.31007071 13.18975274 -8 19 C-8.66 19 -9.32 19 -10 19 C-8.65610276 14.49558061 -6.84328221 10.7205754 -4.4375 6.6875 C-3.50744141 5.11548828 -3.50744141 5.11548828 -2.55859375 3.51171875 C-1 1 -1 1 0 0 Z " fill="#2E201D" transform="translate(53,70)"/>
<path d="M0 0 C4.29 0 8.58 0 13 0 C13 0.99 13 1.98 13 3 C8.71 3 4.42 3 0 3 C0 2.01 0 1.02 0 0 Z " fill="#050530" transform="translate(61,160)"/>
<path d="M0 0 C3.96 0 7.92 0 12 0 C12 0.99 12 1.98 12 3 C7.71 3 3.42 3 -1 3 C-0.67 2.01 -0.34 1.02 0 0 Z " fill="#050530" transform="translate(144,160)"/>
<path d="M0 0 C2.29109597 -0.08075665 4.58299267 -0.13907731 6.875 -0.1875 C8.78925781 -0.23970703 8.78925781 -0.23970703 10.7421875 -0.29296875 C11.81726563 -0.19628906 12.89234375 -0.09960938 14 0 C14.66 0.99 15.32 1.98 16 3 C10.72 3 5.44 3 0 3 C0 2.01 0 1.02 0 0 Z " fill="#271003" transform="translate(89,51)"/>
<path d="M0 0 C1.65 0.33 3.3 0.66 5 1 C4.67 2.65 4.34 4.3 4 6 C2.35 5.67 0.7 5.34 -1 5 C-0.67 3.35 -0.34 1.7 0 0 Z " fill="#3B1B08" transform="translate(127,86)"/>
<path d="M0 0 C1.65 0 3.3 0 5 0 C5 1.65 5 3.3 5 5 C3.125 5.625 3.125 5.625 1 6 C0.34 5.34 -0.32 4.68 -1 4 C-0.625 1.875 -0.625 1.875 0 0 Z " fill="#3B1B09" transform="translate(110,95)"/>
<path d="M0 0 C0 0.66 0 1.32 0 2 C-3.85756507 4.15305957 -6.55129785 5.39253254 -11 5 C-11 4.01 -11 3.02 -11 2 C-9.5422647 1.664061 -8.08378894 1.33133376 -6.625 1 C-5.40683594 0.7215625 -5.40683594 0.7215625 -4.1640625 0.4375 C-2 0 -2 0 0 0 Z " fill="#421F0E" transform="translate(113,156)"/>
<path d="M0 0 C1.23593891 3.70781672 0.5678132 4.67510253 -0.9375 8.1875 C-1.31777344 9.08855469 -1.69804687 9.98960938 -2.08984375 10.91796875 C-2.54037109 11.94857422 -2.54037109 11.94857422 -3 13 C-3.66 13 -4.32 13 -5 13 C-4.69078116 11.54096742 -4.37751201 10.08279278 -4.0625 8.625 C-3.88847656 7.81289062 -3.71445313 7.00078125 -3.53515625 6.1640625 C-3 4 -3 4 -2 2 C-1.34 2 -0.68 2 0 2 C0 1.34 0 0.68 0 0 Z " fill="#4A220B" transform="translate(148,117)"/>
<path d="M0 0 C0.66 0 1.32 0 2 0 C2.70226141 1.24176695 3.38629109 2.49385599 4.0625 3.75 C4.44535156 4.44609375 4.82820312 5.1421875 5.22265625 5.859375 C6.1312406 8.36140628 5.88336837 9.5332355 5 12 C3.20931427 9.3139714 2.33944209 7.3373411 1.375 4.3125 C1.11460937 3.50425781 0.85421875 2.69601563 0.5859375 1.86328125 C0.39257812 1.24839844 0.19921875 0.63351563 0 0 Z " fill="#411D09" transform="translate(141,78)"/>
<path d="M0 0 C0.53625 0.226875 1.0725 0.45375 1.625 0.6875 C1.295 2.0075 0.965 3.3275 0.625 4.6875 C0.625 3.6975 0.625 2.7075 0.625 1.6875 C-2.345 3.0075 -5.315 4.3275 -8.375 5.6875 C-8.375 4.6975 -8.375 3.7075 -8.375 2.6875 C-2.95961538 -0.38942308 -2.95961538 -0.38942308 0 0 Z " fill="#582A10" transform="translate(146.375,110.3125)"/>
<path d="M0 0 C0.66 0.33 1.32 0.66 2 1 C-1.9050849 4.55007718 -4.97734643 5.81819916 -10 7 C-10 6.34 -10 5.68 -10 5 C-8.38007835 4.13624104 -6.75388139 3.28424146 -5.125 2.4375 C-4.22007813 1.96183594 -3.31515625 1.48617187 -2.3828125 0.99609375 C-1.20332031 0.50302734 -1.20332031 0.50302734 0 0 Z " fill="#2D1304" transform="translate(123,151)"/>
<path d="M0 0 C0.66 0.33 1.32 0.66 2 1 C2.43472498 6.2166998 2.43472498 6.2166998 2 9 C-0.3125 11.5625 -0.3125 11.5625 -3 13 C-3.99 12.67 -4.98 12.34 -6 12 C-5.360625 11.896875 -4.72125 11.79375 -4.0625 11.6875 C-3.0415625 11.3471875 -3.0415625 11.3471875 -2 11 C-1.67 10.01 -1.34 9.02 -1 8 C-0.34 8 0.32 8 1 8 C0.67 5.36 0.34 2.72 0 0 Z " fill="#1246CC" transform="translate(156,26)"/>
<path d="M0 0 C-1 1.5 -1 1.5 -3 3 C-5.71846235 3.27345479 -8.25677199 3.13491285 -11 3 C-3.71428571 -1.85714286 -3.71428571 -1.85714286 0 0 Z " fill="#A64E1C" transform="translate(119,157)"/>
<path d="M0 0 C-1.25125384 3.75376152 -2.5652404 4.24073289 -6 6 C-6.66 6 -7.32 6 -8 6 C-6.56530686 1.69592058 -4.58010985 0 0 0 Z " fill="#2D1304" transform="translate(162,100)"/>
<path d="M0 0 C2.97 0 5.94 0 9 0 C9 0.66 9 1.32 9 2 C6.29120665 3.35439668 3.99066732 3.06501451 1 3 C0.67 2.01 0.34 1.02 0 0 Z " fill="#4D250D" transform="translate(118,108)"/>
</svg>
