<?xml version="1.0" encoding="UTF-8"?>
<svg version="1.1" xmlns="http://www.w3.org/2000/svg" width="200" height="200">
<path d="M0 0 C9.82023861 9.51436233 14.87699652 21.92376981 15.53515625 35.48828125 C15.37796007 49.79313347 9.85362254 60.51366571 0.46875 70.9453125 C-1.5 72.6875 -1.5 72.6875 -4.5 72.6875 C-3.5 69.6875 -3.5 69.6875 -1.3125 67.5625 C7.32423768 59.12545568 11.56493364 48.19533158 12 36.1875 C11.79813663 29.29891249 9.85808468 23.11959704 7.5 16.6875 C6.79488281 17.33203125 6.08976562 17.9765625 5.36328125 18.640625 C2.18728543 20.91105039 0.52893419 21.25237064 -3.3125 21.4375 C-4.28832031 21.49421875 -5.26414062 21.5509375 -6.26953125 21.609375 C-7.00558594 21.63515625 -7.74164063 21.6609375 -8.5 21.6875 C-8.5 22.3475 -8.5 23.0075 -8.5 23.6875 C-5.2 23.6875 -1.9 23.6875 1.5 23.6875 C0.25023244 27.34066671 -0.17098753 28.46815836 -3.5 30.6875 C-5.76171875 30.8828125 -5.76171875 30.8828125 -8.1875 30.8125 C-8.99574219 30.79445312 -9.80398437 30.77640625 -10.63671875 30.7578125 C-11.25160156 30.73460937 -11.86648437 30.71140625 -12.5 30.6875 C-12.5 31.3475 -12.5 32.0075 -12.5 32.6875 C-10.19 33.0175 -7.88 33.3475 -5.5 33.6875 C-5.86073224 36.30280876 -6.29749727 37.48499727 -8.1875 39.375 C-10.93827539 40.93625089 -13.39761479 41.20490675 -16.5 41.6875 C-16.995 42.6775 -16.995 42.6775 -17.5 43.6875 C-15.52 43.6875 -13.54 43.6875 -11.5 43.6875 C-12.65173355 46.15550047 -13.54783565 47.73533565 -15.5 49.6875 C-18.125 49.8125 -18.125 49.8125 -20.5 49.6875 C-20.5 50.3475 -20.5 51.0075 -20.5 51.6875 C-19.18 52.3475 -17.86 53.0075 -16.5 53.6875 C-19.15654657 57.42634332 -21.08110387 59.33728174 -25.5 60.6875 C-25.25636719 61.53699219 -25.01273438 62.38648437 -24.76171875 63.26171875 C-24.42779557 67.63262365 -25.96016176 70.00930519 -28.3125 73.5 C-28.68181641 74.08458984 -29.05113281 74.66917969 -29.43164062 75.27148438 C-32.17788976 79.52644488 -32.17788976 79.52644488 -34.5 80.6875 C-43.68451025 67.23875285 -43.68451025 67.23875285 -42.5 59.6875 C-43.6446875 59.31625 -43.6446875 59.31625 -44.8125 58.9375 C-47.7364045 57.57754442 -48.80004356 56.37164174 -50.5 53.6875 C-48.52 53.1925 -48.52 53.1925 -46.5 52.6875 C-46.5 51.6975 -46.5 50.7075 -46.5 49.6875 C-48.81 49.3575 -51.12 49.0275 -53.5 48.6875 C-54.16 47.0375 -54.82 45.3875 -55.5 43.6875 C-53.025 43.1925 -53.025 43.1925 -50.5 42.6875 C-50.5 42.0275 -50.5 41.3675 -50.5 40.6875 C-51.386875 40.77 -52.27375 40.8525 -53.1875 40.9375 C-57.23101869 40.63232878 -58.70614118 39.56353114 -61.5 36.6875 C-61.5 35.6975 -61.5 34.7075 -61.5 33.6875 C-59.19 33.6875 -56.88 33.6875 -54.5 33.6875 C-54.5 32.6975 -54.5 31.7075 -54.5 30.6875 C-55.09167969 30.73390625 -55.68335937 30.7803125 -56.29296875 30.828125 C-60.47889146 31.01932539 -62.8324218 31.09082849 -66.5 28.875 C-68.5 26.6875 -68.5 26.6875 -69.5 23.6875 C-64.55 23.1925 -64.55 23.1925 -59.5 22.6875 C-60.33144531 22.50574219 -61.16289063 22.32398438 -62.01953125 22.13671875 C-63.64955078 21.75966797 -63.64955078 21.75966797 -65.3125 21.375 C-66.39144531 21.13136719 -67.47039062 20.88773438 -68.58203125 20.63671875 C-71.4447156 19.70548408 -72.65397066 18.99989465 -74.5 16.6875 C-75.2115625 18.2653125 -75.2115625 18.2653125 -75.9375 19.875 C-76.20433594 20.46667969 -76.47117187 21.05835938 -76.74609375 21.66796875 C-80.83838549 32.63022176 -79.00228097 45.19534231 -74.5 55.6875 C-71.26911566 61.72818186 -67.66051978 67.15249777 -62.5 71.6875 C-63.49 72.6775 -63.49 72.6775 -64.5 73.6875 C-74.50650504 66.60972814 -79.45918488 55.19089634 -82.25 43.5625 C-83.42085385 30.0976807 -80.83409025 17.01588797 -72.52734375 6.09375 C-63.07087855 -4.9804879 -52.16396265 -11.55035832 -37.54833984 -13.17431641 C-23.29048275 -14.13616946 -10.82557288 -9.11287031 0 0 Z M-62.5 -0.3125 C-63.386875 0.30625 -64.27375 0.925 -65.1875 1.5625 C-68.4408962 4.55210732 -71.14404741 7.94712167 -73.5 11.6875 C-73.5 12.3475 -73.5 13.0075 -73.5 13.6875 C-72.53960815 13.70937378 -72.53960815 13.70937378 -71.55981445 13.73168945 C-68.64345169 13.80641382 -65.72820313 13.90299293 -62.8125 14 C-61.80509766 14.02255859 -60.79769531 14.04511719 -59.75976562 14.06835938 C-50.33338854 14.41057108 -50.33338854 14.41057108 -46.5 17.6875 C-44.1875 20.875 -44.1875 20.875 -42.5 23.6875 C-40.33502897 21.52252897 -40.06059283 20.48805543 -39.25 17.625 C-38.46875 15.47265625 -38.46875 15.47265625 -37.5 13.6875 C-32.85090136 11.78559601 -29.11084784 13.06014194 -24.5 14.6875 C-24.17 15.0175 -23.84 15.3475 -23.5 15.6875 C-25.15 16.3475 -26.8 17.0075 -28.5 17.6875 C-27.84 19.6675 -27.18 21.6475 -26.5 23.6875 C-25.84 23.6875 -25.18 23.6875 -24.5 23.6875 C-23.9225 22.759375 -23.345 21.83125 -22.75 20.875 C-20.11206319 17.13792285 -18.75343304 16.30249003 -14.5 14.6875 C-10.87846582 14.20239593 -7.27532331 14.08655916 -3.625 14 C-2.65046875 13.96583984 -1.6759375 13.93167969 -0.671875 13.89648438 C1.71863491 13.81445707 4.10879905 13.74516152 6.5 13.6875 C-0.2597735 1.40773678 -10.14378081 -5.6759515 -23.5625 -9.75 C-38.16834577 -11.8365494 -50.71674048 -9.39181155 -62.5 -0.3125 Z " fill="#003F87" transform="translate(133.5,64.3125)"/>
<path d="M0 0 C17.04485092 16.46271803 27.48912703 38.57083439 27.96533203 62.43994141 C27.87420752 87.11324382 18.92338819 108.46373827 1.921875 126.26171875 C1.38175781 126.87660156 0.84164062 127.49148437 0.28515625 128.125 C-11.4610268 140.99550284 -29.31922514 148.21877487 -46.078125 151.26171875 C-46.78195313 151.39320313 -47.48578125 151.5246875 -48.2109375 151.66015625 C-68.65577142 154.82525606 -91.40428722 149.84604111 -108.4921875 138.171875 C-129.70056819 122.5058657 -143.04717904 103.0917228 -147.4765625 76.90625 C-150.40158718 54.57329126 -144.91586686 31.7321974 -132.078125 13.26171875 C-128.74281148 8.92421062 -124.98659279 5.08085013 -121.078125 1.26171875 C-120.29953125 0.4625 -119.5209375 -0.33671875 -118.71875 -1.16015625 C-86.14405939 -32.86035852 -32.49661543 -29.54333311 0 0 Z M-122.66015625 8.4296875 C-138.76268838 27.28968071 -144.57121564 49.05574425 -143.30566406 73.46337891 C-142.38065198 84.83943952 -138.42940662 95.23620331 -133.078125 105.26171875 C-132.36076172 106.62683594 -132.36076172 106.62683594 -131.62890625 108.01953125 C-120.8806406 126.59210112 -102.49479004 139.48662215 -82.078125 145.26171875 C-59.10395318 151.14302871 -36.27078682 147.17346087 -16.078125 135.26171875 C3.04020989 123.25550087 16.23463293 104.91850353 21.73754883 83.00830078 C25.83976363 63.97349448 22.86745332 44.84342396 14.921875 27.26171875 C13.21117605 30.20290862 13.21117605 30.20290862 13.296875 33.51171875 C13.503125 34.08921875 13.709375 34.66671875 13.921875 35.26171875 C12.82875 35.52984375 11.735625 35.79796875 10.609375 36.07421875 C7.30494837 37.13835614 5.97227078 37.60826539 3.921875 40.26171875 C3.15875 39.91109375 2.395625 39.56046875 1.609375 39.19921875 C-1.12571879 37.93810991 -1.12571879 37.93810991 -4.078125 39.26171875 C-3.748125 39.92171875 -3.418125 40.58171875 -3.078125 41.26171875 C-3.861875 41.55046875 -4.645625 41.83921875 -5.453125 42.13671875 C-8.17484132 43.11084129 -8.17484132 43.11084129 -10.078125 45.26171875 C-12.140625 45.07421875 -12.140625 45.07421875 -14.078125 44.26171875 C-14.408125 43.27171875 -14.738125 42.28171875 -15.078125 41.26171875 C-13.758125 40.93171875 -12.438125 40.60171875 -11.078125 40.26171875 C-12.90819592 38.18178838 -12.90819592 38.18178838 -15.140625 37.38671875 C-17.078125 36.26171875 -17.078125 36.26171875 -17.828125 34.13671875 C-17.910625 33.51796875 -17.993125 32.89921875 -18.078125 32.26171875 C-17.15 32.77734375 -16.221875 33.29296875 -15.265625 33.82421875 C-12.15054553 35.66268121 -12.15054553 35.66268121 -9.078125 34.26171875 C-9.408125 33.60171875 -9.738125 32.94171875 -10.078125 32.26171875 C-6.448125 32.59171875 -2.818125 32.92171875 0.921875 33.26171875 C0.261875 32.60171875 -0.398125 31.94171875 -1.078125 31.26171875 C-0.748125 30.27171875 -0.418125 29.28171875 -0.078125 28.26171875 C1.24491217 27.88961455 2.57925435 27.55541702 3.921875 27.26171875 C4.251875 26.60171875 4.581875 25.94171875 4.921875 25.26171875 C5.581875 25.59171875 6.241875 25.92171875 6.921875 26.26171875 C9.2548616 26.30194266 11.58894166 26.30492122 13.921875 26.26171875 C3.82145112 6.52321433 -12.52689749 -7.43680486 -33.47265625 -14.95703125 C-66.02735873 -25.37453604 -99.10467636 -15.94967245 -122.66015625 8.4296875 Z M4.921875 31.26171875 C5.251875 32.25171875 5.581875 33.24171875 5.921875 34.26171875 C6.581875 34.26171875 7.241875 34.26171875 7.921875 34.26171875 C7.921875 33.27171875 7.921875 32.28171875 7.921875 31.26171875 C6.931875 31.26171875 5.941875 31.26171875 4.921875 31.26171875 Z M-9.078125 35.26171875 C-9.078125 35.59171875 -9.078125 35.92171875 -9.078125 36.26171875 C-7.428125 36.26171875 -5.778125 36.26171875 -4.078125 36.26171875 C-4.078125 35.93171875 -4.078125 35.60171875 -4.078125 35.26171875 C-5.728125 35.26171875 -7.378125 35.26171875 -9.078125 35.26171875 Z " fill="#003F87" transform="translate(160.078125,35.73828125)"/>
<path d="M0 0 C0.5775 0.226875 1.155 0.45375 1.75 0.6875 C1.09 1.6775 0.43 2.6675 -0.25 3.6875 C-0.91 3.6875 -1.57 3.6875 -2.25 3.6875 C-2.25 4.3475 -2.25 5.0075 -2.25 5.6875 C-1.63511719 5.59210938 -1.02023438 5.49671875 -0.38671875 5.3984375 C0.42152344 5.28757813 1.22976562 5.17671875 2.0625 5.0625 C3.26326172 4.88847656 3.26326172 4.88847656 4.48828125 4.7109375 C6.75 4.6875 6.75 4.6875 9.75 6.6875 C10.1875 9.625 10.1875 9.625 9.75 12.6875 C7.9375 14.625 7.9375 14.625 5.75 15.6875 C4.76 15.3575 3.77 15.0275 2.75 14.6875 C2.75 14.0275 2.75 13.3675 2.75 12.6875 C4.07 12.0275 5.39 11.3675 6.75 10.6875 C6.75 9.6975 6.75 8.7075 6.75 7.6875 C5.8425 8.0175 4.935 8.3475 4 8.6875 C0.75 9.6875 0.75 9.6875 -3.25 9.6875 C-2.04157144 14.11840471 -0.73331435 16.66862756 2.75 19.6875 C1.76 20.3475 0.77 21.0075 -0.25 21.6875 C-2.725 19.7075 -2.725 19.7075 -5.25 17.6875 C-3.765 20.6575 -3.765 20.6575 -2.25 23.6875 C-3.57 24.0175 -4.89 24.3475 -6.25 24.6875 C-6.25 25.3475 -6.25 26.0075 -6.25 26.6875 C-9.22 28.0075 -12.19 29.3275 -15.25 30.6875 C-17.56 27.0575 -19.87 23.4275 -22.25 19.6875 C-21.59 24.3075 -20.93 28.9275 -20.25 33.6875 C-22.23 34.1825 -22.23 34.1825 -24.25 34.6875 C-26.89 30.3975 -29.53 26.1075 -32.25 21.6875 C-31.755 23.605625 -31.26 25.52375 -30.75 27.5 C-29.92226165 30.70748611 -29.25 33.37205701 -29.25 36.6875 C-30.24 36.6875 -31.23 36.6875 -32.25 36.6875 C-32.95246995 34.7971624 -33.63640849 32.89993172 -34.3125 31 C-34.88677734 29.41638672 -34.88677734 29.41638672 -35.47265625 27.80078125 C-36.2733052 24.59416208 -36.1737249 22.8188693 -35.25 19.6875 C-33.27 19.3575 -31.29 19.0275 -29.25 18.6875 C-28.26 20.3375 -27.27 21.9875 -26.25 23.6875 C-26.37632813 22.62144531 -26.50265625 21.55539063 -26.6328125 20.45703125 C-26.25 16.6875 -26.25 16.6875 -23.6171875 14.32421875 C-22.46476563 13.68097656 -21.31234375 13.03773438 -20.125 12.375 C-18.98804688 11.71886719 -17.85109375 11.06273437 -16.6796875 10.38671875 C-13.25 8.6875 -13.25 8.6875 -9.859375 7.578125 C-8.99828125 7.28421875 -8.1371875 6.9903125 -7.25 6.6875 C-6.57843384 4.75131575 -6.57843384 4.75131575 -6.25 2.6875 C-3.12804878 -0.43445122 -3.12804878 -0.43445122 0 0 Z M-11.25 10.6875 C-10.59 12.0075 -9.93 13.3275 -9.25 14.6875 C-8.26 14.3575 -7.27 14.0275 -6.25 13.6875 C-6.58 12.6975 -6.91 11.7075 -7.25 10.6875 C-8.57 10.6875 -9.89 10.6875 -11.25 10.6875 Z M-19.25 15.6875 C-18.92 17.0075 -18.59 18.3275 -18.25 19.6875 C-16.27 19.3575 -14.29 19.0275 -12.25 18.6875 C-12.765625 19.079375 -13.28125 19.47125 -13.8125 19.875 C-14.5240625 20.7721875 -14.5240625 20.7721875 -15.25 21.6875 C-15.01956136 24.34216049 -15.01956136 24.34216049 -14.25 26.6875 C-11.61 26.0275 -8.97 25.3675 -6.25 24.6875 C-7.99268207 20.72685893 -10.39674729 16.94313451 -13.25 13.6875 C-15.71278801 13.6875 -17.10224119 14.54202863 -19.25 15.6875 Z " fill="#003F87" transform="translate(152.25,139.3125)"/>
<path d="M0 0 C0.99 0 1.98 0 3 0 C3.33 0.99 3.66 1.98 4 3 C5.32 2.67 6.64 2.34 8 2 C8.061875 2.61875 8.12375 3.2375 8.1875 3.875 C8.455625 4.57625 8.72375 5.2775 9 6 C10.64551962 6.71727778 12.31422289 7.38325228 14 8 C16 11 16 11 15.625 13.6875 C15.315625 14.8321875 15.315625 14.8321875 15 16 C12.525 14.515 12.525 14.515 10 13 C9.67 14.32 9.34 15.64 9 17 C6.13275314 16.42655063 5.1385485 16.1385485 3 14 C4.12697043 18.96911366 4.12697043 18.96911366 7 23 C7.125 25.625 7.125 25.625 7 28 C5.68 27.67 4.36 27.34 3 27 C2.34 27.99 1.68 28.98 1 30 C1.44472656 30.54269531 1.88945313 31.08539063 2.34765625 31.64453125 C2.91355469 32.35996094 3.47945312 33.07539062 4.0625 33.8125 C4.63097656 34.52019531 5.19945312 35.22789063 5.78515625 35.95703125 C6.18605469 36.63121094 6.58695313 37.30539063 7 38 C6.67 38.99 6.34 39.98 6 41 C3.67578125 40.87109375 3.67578125 40.87109375 1 40 C-0.58203125 37.34765625 -0.58203125 37.34765625 -1.8125 34.0625 C-2.23144531 32.98097656 -2.65039062 31.89945313 -3.08203125 30.78515625 C-4 28 -4 28 -4 26 C-3.34 26 -2.68 26 -2 26 C-1.67 24.35 -1.34 22.7 -1 21 C-2.32 21.33 -3.64 21.66 -5 22 C-6.23921302 19.02588876 -7.30058404 16.14737182 -8 13 C-6.02 12.67 -4.04 12.34 -2 12 C-2.33 11.401875 -2.66 10.80375 -3 10.1875 C-4 8 -4 8 -4 5 C-3.01 4.34 -2.02 3.68 -1 3 C-0.67 2.01 -0.34 1.02 0 0 Z " fill="#003F87" transform="translate(41,53)"/>
<path d="M0 0 C0.99 0.33 1.98 0.66 3 1 C3 3.31 3 5.62 3 8 C3.99 6.35 4.98 4.7 6 3 C6.99 3.33 7.98 3.66 9 4 C8.67 4.66 8.34 5.32 8 6 C11.465 5.505 11.465 5.505 15 5 C15.66 6.98 16.32 8.96 17 11 C16.01 11.33 15.02 11.66 14 12 C13.67 11.01 13.34 10.02 13 9 C12.01 9 11.02 9 10 9 C9.34 11.97 8.68 14.94 8 18 C8.99 18.33 9.98 18.66 11 19 C11 18.34 11 17.68 11 17 C10.34 16.34 9.68 15.68 9 15 C9.33 14.34 9.66 13.68 10 13 C12.475 13.495 12.475 13.495 15 14 C14.34 16.97 13.68 19.94 13 23 C10.1875 22.8125 10.1875 22.8125 7 22 C4.72136847 19.11373339 4 17.6952982 4 14 C3.01 15.98 2.02 17.96 1 20 C0.01 19.67 -0.98 19.34 -2 19 C-2 16.69 -2 14.38 -2 12 C-3.485 14.475 -3.485 14.475 -5 17 C-5.99 16.34 -6.98 15.68 -8 15 C-5.36 10.05 -2.72 5.1 0 0 Z M7 6 C8 8 8 8 8 8 Z M5 10 C6 12 6 12 6 12 Z " fill="#003F87" transform="translate(70,155)"/>
<path d="M0 0 C0.66 0 1.32 0 2 0 C2.66 5.61 3.32 11.22 4 17 C2.68 17 1.36 17 0 17 C-0.66 15.68 -1.32 14.36 -2 13 C-2.33 14.98 -2.66 16.96 -3 19 C-3.99 19 -4.98 19 -6 19 C-6.33 16.36 -6.66 13.72 -7 11 C-7.309375 12.134375 -7.61875 13.26875 -7.9375 14.4375 C-9 18 -9 18 -10 19 C-12.9375 19.1875 -12.9375 19.1875 -16 19 C-18 17 -18 17 -18.1953125 13.5234375 C-18.18201493 12.14049032 -18.15816232 10.75761346 -18.125 9.375 C-18.11597656 8.66859375 -18.10695313 7.9621875 -18.09765625 7.234375 C-18.07407603 5.48943902 -18.03820461 3.74467705 -18 2 C-17.01 2 -16.02 2 -15 2 C-15 6.62 -15 11.24 -15 16 C-13.68 16 -12.36 16 -11 16 C-11.0309375 14.205625 -11.0309375 14.205625 -11.0625 12.375 C-11.06882571 8.81995131 -10.69888875 5.49444376 -10 2 C-7.1875 1.3125 -7.1875 1.3125 -4 1 C-2.125 2.4375 -2.125 2.4375 -1 4 C-0.67 2.68 -0.34 1.36 0 0 Z " fill="#003F87" transform="translate(113,160)"/>
<path d="M0 0 C0.66 0.33 1.32 0.66 2 1 C2 1.66 2 2.32 2 3 C0.33333333 4.33333333 -1.33333333 5.66666667 -3 7 C-3 7.66 -3 8.32 -3 9 C-0.36 8.01 2.28 7.02 5 6 C6.03325986 7.42859407 7.05127634 8.86822383 8.0625 10.3125 C8.63097656 11.11300781 9.19945313 11.91351563 9.78515625 12.73828125 C10.38650391 13.85783203 10.38650391 13.85783203 11 15 C10.67 15.99 10.34 16.98 10 18 C8 16.625 8 16.625 6 15 C6 14.34 6 13.68 6 13 C5.01 13.99 4.02 14.98 3 16 C3.66 17.65 4.32 19.3 5 21 C3.0625 20.625 3.0625 20.625 1 20 C0.67 19.34 0.34 18.68 0 18 C-1.98 18.99 -1.98 18.99 -4 20 C-3.01 21.65 -2.02 23.3 -1 25 C-2.32 25 -3.64 25 -5 25 C-7.17457267 22.12645755 -8 20.63563409 -8 17 C-5 14.8125 -5 14.8125 -2 13 C-4.97 14.32 -7.94 15.64 -11 17 C-10 13 -10 13 -7.9375 11.75 C-7.298125 11.5025 -6.65875 11.255 -6 11 C-6.33 10.01 -6.66 9.02 -7 8 C-10.465 9.485 -10.465 9.485 -14 11 C-13.90234375 9.23828125 -13.90234375 9.23828125 -13 7 C-10.8476309 5.53287494 -8.86607784 4.35283938 -6.5625 3.1875 C-5.96373047 2.86330078 -5.36496094 2.53910156 -4.74804688 2.20507812 C-3.20169806 1.39640523 -1.60286 0.68991763 0 0 Z " fill="#003F87" transform="translate(41,125)"/>
<path d="M0 0 C0.66 0 1.32 0 2 0 C4 3 4 3 3.6875 5.5625 C3 8 3 8 2 10 C4.475 10.495 4.475 10.495 7 11 C6.67 11.99 6.34 12.98 6 14 C4.329375 14.12375 4.329375 14.12375 2.625 14.25 C1.42875 14.4975 0.2325 14.745 -1 15 C-2.18330183 16.86644906 -2.18330183 16.86644906 -3 19 C-6.9563029 22.16504232 -10.02666392 22.29254918 -15 22 C-14 20 -14 20 -11 19 C-11.94875 18.7525 -12.8975 18.505 -13.875 18.25 C-17 17 -17 17 -18.375 14.875 C-18.58125 14.25625 -18.7875 13.6375 -19 13 C-15.71480525 11.90493508 -13.26336585 11.90039392 -9.8125 11.9375 C-8.18248047 11.95103516 -8.18248047 11.95103516 -6.51953125 11.96484375 C-5.68808594 11.97644531 -4.85664062 11.98804688 -4 12 C-3.87882812 11.30132812 -3.75765625 10.60265625 -3.6328125 9.8828125 C-3.46523437 8.97273438 -3.29765625 8.06265625 -3.125 7.125 C-2.96257812 6.22007813 -2.80015625 5.31515625 -2.6328125 4.3828125 C-2 2 -2 2 0 0 Z " fill="#003F87" transform="translate(128,26)"/>
<path d="M0 0 C3.0478881 1.44739891 5.82138128 3.12466976 8.625 5 C9.78902344 5.7734375 9.78902344 5.7734375 10.9765625 6.5625 C13 8 13 8 15 10 C14.34 10.66 13.68 11.32 13 12 C12.01 11.67 11.02 11.34 10 11 C7.94106379 10.77674186 5.87766347 10.59294241 3.8125 10.4375 C2.72582031 10.35371094 1.63914063 10.26992187 0.51953125 10.18359375 C-0.31191406 10.12300781 -1.14335937 10.06242187 -2 10 C-2 11.32 -2 12.64 -2 14 C0.67326179 15.93230763 0.67326179 15.93230763 4 17.5625 C7.375 19.31640625 7.375 19.31640625 10 21 C10 21.99 10 22.98 10 24 C4.68972746 22.53967505 0.53669968 20.01679014 -4 17 C-4.99 17.66 -5.98 18.32 -7 19 C-8 16 -8 16 -7.21484375 13.7734375 C-3.73264648 7.23499981 -3.73264648 7.23499981 0.3125 5.9375 C1.199375 5.958125 2.08625 5.97875 3 6 C1.68 5.01 0.36 4.02 -1 3 C-0.67 2.01 -0.34 1.02 0 0 Z " fill="#003F87" transform="translate(162,114)"/>
<path d="M0 0 C0.5775 0.226875 1.155 0.45375 1.75 0.6875 C1.42 2.9975 1.09 5.3075 0.75 7.6875 C1.41 7.6875 2.07 7.6875 2.75 7.6875 C1.875 14.5625 1.875 14.5625 0.75 15.6875 C-0.91617115 15.72813832 -2.58388095 15.730221 -4.25 15.6875 C-4.25 13.35416667 -4.25 11.02083333 -4.25 8.6875 C-5.57 8.0275 -6.89 7.3675 -8.25 6.6875 C-6.65594781 2.8352072 -4.57967475 -0.63606594 0 0 Z " fill="#003F87" transform="translate(85.25,26.3125)"/>
<path d="M0 0 C0.99 0.33 1.98 0.66 3 1 C2.34496718 5.05819183 1.05440879 8.53971282 -0.5625 12.3125 C-1.01753906 13.38113281 -1.47257812 14.44976562 -1.94140625 15.55078125 C-2.29074219 16.35902344 -2.64007813 17.16726562 -3 18 C-3.99 17.67 -4.98 17.34 -6 17 C-5.67 15.35 -5.34 13.7 -5 12 C-6.98 12.66 -8.96 13.32 -11 14 C-11 10 -11 10 -8.84765625 7.67578125 C-7.92855469 6.89589844 -7.00945313 6.11601562 -6.0625 5.3125 C-5.14597656 4.52488281 -4.22945312 3.73726562 -3.28515625 2.92578125 C-2.15400391 1.97251953 -2.15400391 1.97251953 -1 1 C-0.67 0.67 -0.34 0.34 0 0 Z M-3 6 C-3 9 -3 9 -3 9 Z " fill="#003F87" transform="translate(64,152)"/>
<path d="M0 0 C0.99 0 1.98 0 3 0 C3.99 2.97 4.98 5.94 6 9 C0.51322045 9.08441199 -4.59280411 8.92037377 -10 8 C-9.67 9.98 -9.34 11.96 -9 14 C-9.99 14 -10.98 14 -12 14 C-14.03342293 9.81354102 -13.98484577 8.92422885 -13 4 C-6.07 4.495 -6.07 4.495 1 5 C0.67 3.35 0.34 1.7 0 0 Z " fill="#003F87" transform="translate(36,115)"/>
<path d="M0 0 C0.66 0.66 1.32 1.32 2 2 C1.85986328 3.87939453 1.85986328 3.87939453 1.3203125 6.1328125 C1.13339844 6.93847656 0.94648437 7.74414062 0.75390625 8.57421875 C0.44259766 9.83685547 0.44259766 9.83685547 0.125 11.125 C-0.07480469 11.97449219 -0.27460937 12.82398438 -0.48046875 13.69921875 C-0.97661898 15.80195068 -1.48698884 17.90131799 -2 20 C-3.8125 20.625 -3.8125 20.625 -6 21 C-6.99 20.34 -7.98 19.68 -9 19 C-7.68258267 15.37710236 -5.96838324 12.16873361 -4.01953125 8.84765625 C-2.44208954 5.98892089 -1.23321403 3.02137438 0 0 Z " fill="#003F87" transform="translate(75,39)"/>
<path d="M0 0 C1.125 3.75 1.125 3.75 0 6 C0 7.32 0 8.64 0 10 C-2.79870027 11.39935013 -4.90498792 11.25265405 -8 11 C-9.875 9.5 -9.875 9.5 -11 8 C-10.67 7.4225 -10.34 6.845 -10 6.25 C-8.72924102 3.80116138 -8.72924102 3.80116138 -9 0 C-5.52176885 -1.15941038 -3.54104422 -0.70820884 0 0 Z M-6 1 C-5.67 1.99 -5.34 2.98 -5 4 C-4.01 4 -3.02 4 -2 4 C-2.33 3.01 -2.66 2.02 -3 1 C-3.99 1 -4.98 1 -6 1 Z M-8 6 C-7.01 7.485 -7.01 7.485 -6 9 C-5.01 9 -4.02 9 -3 9 C-3.33 8.01 -3.66 7.02 -4 6 C-5.32 6 -6.64 6 -8 6 Z " fill="#003F87" transform="translate(96,146)"/>
<path d="M0 0 C0.66 0.66 1.32 1.32 2 2 C1.8048537 5.0572921 1.46289603 7.26911153 -0.1875 9.875 C-2.80014875 11.49664405 -4.99520702 11.20031953 -8 11 C-8 10.34 -8 9.68 -8 9 C-6.35 8.67 -4.7 8.34 -3 8 C-3.804375 7.773125 -4.60875 7.54625 -5.4375 7.3125 C-6.283125 6.879375 -7.12875 6.44625 -8 6 C-8.8125 3.375 -8.8125 3.375 -9 1 C-5.66429909 -1.10025613 -3.74952434 -1.18406032 0 0 Z M-5 1 C-5 2.32 -5 3.64 -5 5 C-3.68 5 -2.36 5 -1 5 C-1.66 3.68 -2.32 2.36 -3 1 C-3.66 1 -4.32 1 -5 1 Z " fill="#003F87" transform="translate(111,146)"/>
<path d="M0 0 C0.66 0.33 1.32 0.66 2 1 C-0.19301972 5.95667213 -3.67131272 9.76951672 -8 13 C-11.5 13 -11.5 13 -14 12 C-14.33 9.69 -14.66 7.38 -15 5 C-14.01 5.33 -13.02 5.66 -12 6 C-11.67 6.99 -11.34 7.98 -11 9 C-7.78475695 7.59155282 -5.67816132 5.89655214 -3.25 3.375 C-2.63640625 2.74335938 -2.0228125 2.11171875 -1.390625 1.4609375 C-0.93171875 0.97882813 -0.4728125 0.49671875 0 0 Z " fill="#003F87" transform="translate(55,145)"/>
<path d="M0 0 C2.31 0 4.62 0 7 0 C7 1.65 7 3.3 7 5 C8.65 5.33 10.3 5.66 12 6 C12 7.65 12 9.3 12 11 C9.125 10.25 9.125 10.25 6 9 C4.875 7.0625 4.875 7.0625 4 5 C2.67607028 3.98758315 1.34400833 2.98560611 0 2 C0 1.34 0 0.68 0 0 Z " fill="#003F87" transform="translate(24,71)"/>
<path d="M0 0 C0.99 0.33 1.98 0.66 3 1 C1.43632643 4.52238047 -0.69495889 7.27123994 -3.125 10.25 C-3.84945312 11.14203125 -4.57390625 12.0340625 -5.3203125 12.953125 C-6.15175781 13.96632812 -6.15175781 13.96632812 -7 15 C-7.99 14.67 -8.98 14.34 -10 14 C-8.43632643 10.47761953 -6.30504111 7.72876006 -3.875 4.75 C-3.15054688 3.85796875 -2.42609375 2.9659375 -1.6796875 2.046875 C-0.84824219 1.03367188 -0.84824219 1.03367188 0 0 Z " fill="#003F87" transform="translate(58,148)"/>
<path d="M0 0 C6.26418531 1.48362284 10.91513505 5.24162156 16 9 C15.67 9.66 15.34 10.32 15 11 C11.04093183 9.56691865 7.71281819 7.66858051 4.1875 5.375 C3.21167969 4.74335938 2.23585937 4.11171875 1.23046875 3.4609375 C0.49441406 2.97882813 -0.24164063 2.49671875 -1 2 C-0.67 1.34 -0.34 0.68 0 0 Z " fill="#003F87" transform="translate(152,134)"/>
<path d="M0 0 C1.65 0 3.3 0 5 0 C4.56231549 2.62610706 4.12693161 4.7602403 2.875 7.125 C1.66806769 9.15044414 1.66806769 9.15044414 3 12 C-0.65316671 10.75023244 -1.78065836 10.32901247 -4 7 C-3.360625 6.731875 -2.72125 6.46375 -2.0625 6.1875 C0.33131686 5.11332248 0.33131686 5.11332248 1 2 C0.67 1.34 0.34 0.68 0 0 Z " fill="#003F87" transform="translate(75,141)"/>
<path d="M0 0 C0 4.29 0 8.58 0 13 C-0.66 13 -1.32 13 -2 13 C-2 10.03 -2 7.06 -2 4 C-3.98 4.99 -3.98 4.99 -6 6 C-6.99 6 -7.98 6 -9 6 C-9 5.34 -9 4.68 -9 4 C-7.68872739 3.3309224 -6.3759455 2.66480194 -5.0625 2 C-4.33160156 1.62875 -3.60070312 1.2575 -2.84765625 0.875 C-1 0 -1 0 0 0 Z " fill="#003F87" transform="translate(125,139)"/>
<path d="M0 0 C1.2065625 0.0309375 1.2065625 0.0309375 2.4375 0.0625 C3.0625 2.4375 3.0625 2.4375 3.4375 5.0625 C2.7775 5.7225 2.1175 6.3825 1.4375 7.0625 C-1.1875 6.6875 -1.1875 6.6875 -3.5625 6.0625 C-3.605221 4.39638095 -3.60313832 2.72867115 -3.5625 1.0625 C-2.5625 0.0625 -2.5625 0.0625 0 0 Z " fill="#003F87" transform="translate(130.5625,46.9375)"/>
<path d="M0 0 C1.65 0.33 3.3 0.66 5 1 C5 2.65 5 4.3 5 6 C3.68 6.33 2.36 6.66 1 7 C-1 4 -1 4 -0.625 1.8125 C-0.41875 1.214375 -0.2125 0.61625 0 0 Z " fill="#003F87" transform="translate(67,37)"/>
<path d="M0 0 C2.475 0.99 2.475 0.99 5 2 C4.6875 3.875 4.6875 3.875 4 6 C3.01 6.66 2.02 7.32 1 8 C-1 5 -1 5 -0.625 2.3125 C-0.41875 1.549375 -0.2125 0.78625 0 0 Z " fill="#003F87" transform="translate(67,28)"/>
</svg>
